{
	"asset":{
		"generator":"Khronos glTF Blender I/O v3.6.28",
		"version":"2.0"
	},
	"scene":0,
	"scenes":[
		{
			"name":"Scene",
			"nodes":[
				0
			]
		}
	],
	"nodes":[
		{
			"mesh":0,
			"name":"Mesh_0"
		}
	],
	"materials":[
		{
			"doubleSided":true,
			"name":"baking",
			"normalTexture":{
				"index":0
			},
			"pbrMetallicRoughness":{
				"baseColorTexture":{
					"index":1
				},
				"metallicFactor":0,
				"metallicRoughnessTexture":{
					"index":2
				}
			}
		}
	],
	"meshes":[
		{
			"name":"Mesh_0",
			"primitives":[
				{
					"attributes":{
						"POSITION":0,
						"NORMAL":1,
						"TEXCOORD_0":2
					},
					"indices":3,
					"material":0
				}
			]
		}
	],
	"textures":[
		{
			"sampler":0,
			"source":0
		},
		{
			"sampler":0,
			"source":1
		},
		{
			"sampler":0,
			"source":2
		}
	],
	"images":[
		{
			"bufferView":4,
			"mimeType":"image/jpeg",
			"name":"frankie-normal"
		},
		{
			"bufferView":5,
			"mimeType":"image/jpeg",
			"name":"frankie-albedo"
		},
		{
			"bufferView":6,
			"mimeType":"image/png",
			"name":"frankie-roughness"
		}
	],
	"accessors":[
		{
			"bufferView":0,
			"componentType":5126,
			"count":17108,
			"max":[
				0.35239166021347046,
				1.0651406049728394,
				0.472738116979599
			],
			"min":[
				-0.35445335507392883,
				1.1102230246251565e-16,
				-0.48765474557876587
			],
			"type":"VEC3"
		},
		{
			"bufferView":1,
			"componentType":5126,
			"count":17108,
			"type":"VEC3"
		},
		{
			"bufferView":2,
			"componentType":5126,
			"count":17108,
			"type":"VEC2"
		},
		{
			"bufferView":3,
			"componentType":5123,
			"count":74994,
			"type":"SCALAR"
		}
	],
	"bufferViews":[
		{
			"buffer":0,
			"byteLength":205296,
			"byteOffset":0,
			"target":34962
		},
		{
			"buffer":0,
			"byteLength":205296,
			"byteOffset":205296,
			"target":34962
		},
		{
			"buffer":0,
			"byteLength":136864,
			"byteOffset":410592,
			"target":34962
		},
		{
			"buffer":0,
			"byteLength":149988,
			"byteOffset":547456,
			"target":34963
		},
		{
			"buffer":0,
			"byteLength":97466,
			"byteOffset":697444
		},
		{
			"buffer":0,
			"byteLength":221816,
			"byteOffset":794912
		},
		{
			"buffer":0,
			"byteLength":976788,
			"byteOffset":1016728
		}
	],
	"samplers":[
		{
			"magFilter":9729,
			"minFilter":9987
		}
	],
	"buffers":[
		{
			"byteLength":1993516,
			"uri":"data:application/octet-stream;base64,"
		}
	]
}
