{"accessors" : [{"bufferView" : 0, "byteOffset" : 0, "componentType" : 5123, "count" : 74994, "type" : "SCALAR", "max" : [17107], "min" : [0]}, {"bufferView" : 1, "byteOffset" : 0, "componentType" : 5126, "count" : 17108, "type" : "VEC3", "max" : [0.35239166021347046, 0.48765474557876587, 1.0651406049728394], "min" : [-0.35445335507392883, -0.472738116979599, 1.1102230246251565E-16], "name" : "POSITION"}, {"bufferView" : 1, "byteOffset" : 12, "componentType" : 5126, "count" : 17108, "type" : "VEC3", "max" : [0.9999731183052063, 0.9993535876274109, 0.9999275207519531], "min" : [-0.9999403953552246, -0.9999038577079773, -0.9993441104888916], "name" : "NORMAL"}, {"bufferView" : 1, "byteOffset" : 24, "componentType" : 5126, "count" : 17108, "type" : "VEC2", "max" : [0.9938244819641113, 0.9999936819076538], "min" : [5.4670843383064494E-05, 4.70280647277832E-05], "name" : "TEXCOORD_0"}], "asset" : {"generator" : "Aspose.3D 24.6.0", "version" : "2.0"}, "buffers" : [{"uri" : "data:application/octet-stream;base64,", "byteLength" : 697452}], "bufferViews" : [{"buffer" : 0, "byteOffset" : 0, "byteLength" : 149988, "target" : 34963}, {"buffer" : 0, "byteOffset" : 149992, "byteLength" : 547456, "byteStride" : 32, "target" : 34962}], "images" : [{"uri" : "/Users/alexandervelascodiaz/Desktop/frankie-normal.jpg"}, {"uri" : "/Users/alexandervelascodiaz/Desktop/frankie-albedo.jpg"}], "materials" : [{"name" : "baking", "pbrMetallicRoughness" : {"baseColorFactor" : [1, 1, 1, 1], "baseColorTexture" : {"index" : 1, "texCoord" : 0}, "metallicFactor" : 1, "roughnessFactor" : 1}, "normalTexture" : {"index" : 0, "texCoord" : 0, "scale" : 1}, "emissiveFactor" : [1, 1, 1], "alphaMode" : "OPAQUE", "doubleSided" : false}], "meshes" : [{"primitives" : [{"attributes" : {"POSITION" : 1, "NORMAL" : 2, "TEXCOORD_0" : 3}, "indices" : 0, "material" : 0, "mode" : 4}], "name" : "Mesh_0"}], "nodes" : [{"matrix" : [100, 0, 0, 0, 0, -1.6292067955264296E-05, -99.99999999999866, 0, 0, 99.99999999999866, -1.6292067955264296E-05, 0, 0, 0, 0, 1], "mesh" : 0, "name" : "Mesh_0"}], "samplers" : [{"magFilter" : 9729, "minFilter" : 9729, "wrapS" : 10497, "wrapT" : 10497}, {"magFilter" : 9729, "minFilter" : 9729, "wrapS" : 10497, "wrapT" : 10497}], "scene" : 0, "scenes" : [{"nodes" : [0]}], "textures" : [{"sampler" : 0, "source" : 0, "name" : "normalmap_texture"}, {"sampler" : 1, "source" : 1, "name" : "base_color_texture"}]}